<?xml version="1.0" encoding="UTF-8"?>
<svg id="Layer_1" xmlns="http://www.w3.org/2000/svg" version="1.1" viewBox="0 0 16 16">
  <!-- Generator: Adobe Illustrator 29.7.1, SVG Export Plug-In . SVG Version: 2.1.1 Build 8)  -->
  <defs>
    <style>
      .st0 {
        fill: #fff;
      }
    </style>
  </defs>
  <path class="st0" d="M3.47,1.95c1.84,1.38,3.81,4.17,4.53,5.67.73-1.5,2.7-4.29,4.53-5.67,1.32-.99,3.47-1.76,3.47.68,0,.49-.28,4.11-.44,4.69-.57,2.04-2.65,2.56-4.5,2.25,3.24.55,4.06,2.38,2.28,4.2-3.38,3.46-4.85-.87-5.23-1.98-.07-.2-.1-.3-.1-.22,0-.08-.03.01-.1.22-.38,1.11-1.86,5.44-5.23,1.98-1.78-1.82-.95-3.65,2.28-4.2-1.85.31-3.93-.2-4.5-2.25-.16-.59-.44-4.2-.44-4.69C0,.19,2.14.95,3.47,1.95"/>
</svg>